# This file uses centimeters as units for non-parametric coordinates.

mtllib canaleta.mtl
g default
v 0.809017 4.435317 -7.093304
v 0.809017 4.435317 7.093304
v 0.951057 4.714085 7.093304
v 0.951057 4.714085 -7.093304
v 1.000000 5.023102 0.000000
v 1.000000 5.023102 -1.830477
v -1.000000 5.023102 1.830477
v -1.000000 5.023102 3.660953
v 1.000000 5.023102 1.830477
v -1.000000 5.023102 5.491430
v -0.809017 4.435317 7.093304
v 0.000000 5.023102 7.093304
v -0.587785 4.214085 7.093304
v -0.951057 4.714085 7.093304
v -0.309017 4.072045 7.093304
v -1.000000 5.023102 7.093304
v -0.000000 4.023102 7.093304
v 0.309017 4.072045 7.093304
v 0.587785 4.214085 7.093304
v 1.000000 5.023102 3.660953
v 1.000000 5.023102 7.093304
v 1.000000 5.023102 5.491430
v 1.000000 5.023102 -3.660953
v 1.000000 5.023102 -5.491430
v 1.000000 5.023102 -7.093304
v 0.587785 4.214085 -7.093304
v 0.309017 4.072045 -7.093304
v -1.000000 5.023102 0.000000
v -0.000000 4.023102 -7.093304
v -0.309017 4.072045 -7.093304
v -0.587785 4.214085 -7.093304
v -0.951057 4.714085 -7.093304
v -0.809017 4.435317 -7.093304
v -1.000000 5.023102 -1.830477
v 0.000000 5.023102 -7.093304
v -1.000000 5.023102 -3.660953
v -1.000000 5.023102 -7.093304
v -1.000000 5.023102 -5.491430
vt 0.587500 0.312500
vt 0.587500 0.688440
vt 0.600000 0.688440
vt 0.600000 0.312500
vt 0.373591 0.751909
vt 0.500000 0.837500
vt 0.408159 0.717341
vt 0.351397 0.795466
vt 0.451716 0.695147
vt 0.343750 0.843750
vt 0.500000 0.687500
vt 0.548284 0.695147
vt 0.591842 0.717341
vt 0.626409 0.751908
vt 0.648603 0.795466
vt 0.656250 0.843750
vt 0.612500 0.688440
vt 0.612500 0.645991
vt 0.612500 0.597484
vt 0.612500 0.548977
vt 0.612500 0.500470
vt 0.612500 0.451963
vt 0.612500 0.403456
vt 0.612500 0.354949
vt 0.612500 0.312500
vt 0.575000 0.312500
vt 0.575000 0.688440
vt 0.562500 0.312500
vt 0.562500 0.688440
vt 0.550000 0.312500
vt 0.550000 0.688440
vt 0.537500 0.312500
vt 0.537500 0.688440
vt 0.525000 0.312500
vt 0.525000 0.688440
vt 0.500000 0.312500
vt 0.500000 0.688440
vt 0.512500 0.688440
vt 0.512500 0.312500
vt 0.656250 0.156250
vt 0.500000 0.150000
vt 0.648603 0.204534
vt 0.626409 0.248091
vt 0.591841 0.282659
vt 0.548284 0.304853
vt 0.500000 0.312500
vt 0.451716 0.304853
vt 0.351397 0.204534
vt 0.343750 0.156250
vt 0.408159 0.282659
vt 0.373591 0.248091
vt 0.487500 0.312500
vt 0.487500 0.354949
vt 0.487500 0.403456
vt 0.487500 0.451963
vt 0.487500 0.500470
vt 0.487500 0.548977
vt 0.487500 0.597484
vt 0.487500 0.645991
vt 0.487500 0.688440
vn -0.809017 0.587785 0.000000
vn -0.809017 0.587785 0.000000
vn -0.951057 0.309017 0.000000
vn -0.951057 0.309017 0.000000
vn 0.000000 0.000000 -1.000000
vn 0.000000 0.000000 -1.000000
vn -0.000000 0.000000 -1.000000
vn 0.000000 0.000000 -1.000000
vn -0.000000 0.000000 -1.000000
vn 0.000000 0.000000 -1.000000
vn 0.000000 0.000000 -1.000000
vn 0.000000 0.000000 -1.000000
vn 0.000000 0.000000 -1.000000
vn 0.000000 0.000000 -1.000000
vn 0.000000 0.000000 -1.000000
vn 0.000000 0.000000 -1.000000
vn -0.987688 0.156434 0.000000
vn -0.987688 0.156434 0.000000
vn -0.987688 0.156434 0.000000
vn -0.987688 0.156434 0.000000
vn -0.987688 0.156434 0.000000
vn -0.987688 0.156434 0.000000
vn -0.987688 0.156434 0.000000
vn -0.987688 0.156434 0.000000
vn -0.987688 0.156434 0.000000
vn -0.587785 0.809017 0.000000
vn -0.587785 0.809017 0.000000
vn -0.309017 0.951057 0.000000
vn -0.309017 0.951057 0.000000
vn 0.000000 1.000000 0.000000
vn 0.000000 1.000000 0.000000
vn 0.309017 0.951057 0.000000
vn 0.309017 0.951057 0.000000
vn 0.587785 0.809017 0.000000
vn 0.587785 0.809017 0.000000
vn 0.951057 0.309017 0.000000
vn 0.951057 0.309017 0.000000
vn 0.809017 0.587786 0.000000
vn 0.809017 0.587786 0.000000
vn 0.000000 0.000000 1.000000
vn 0.000000 0.000000 1.000000
vn 0.000000 0.000000 1.000000
vn 0.000000 0.000000 1.000000
vn 0.000000 0.000000 1.000000
vn 0.000000 0.000000 1.000000
vn 0.000000 0.000000 1.000000
vn -0.000000 0.000000 1.000000
vn 0.000000 0.000000 1.000000
vn 0.000000 0.000000 1.000000
vn -0.000000 0.000000 1.000000
vn 0.000000 0.000000 1.000000
vn 0.987688 0.156434 0.000000
vn 0.987688 0.156434 0.000000
vn 0.987688 0.156434 0.000000
vn 0.987688 0.156434 0.000000
vn 0.987688 0.156434 0.000000
vn 0.987688 0.156434 0.000000
vn 0.987688 0.156434 0.000000
vn 0.987688 0.156434 0.000000
vn 0.987688 0.156434 0.000000
s 1
g pPlane2
usemtl initialShadingGroup
f 1/1/1 2/2/2 3/3/3 4/4/4
s 2
f 11/5/5 12/6/6 13/7/7
f 14/8/8 12/6/6 11/5/5
f 13/7/7 12/6/6 15/9/9
f 16/10/10 12/6/6 14/8/8
f 15/9/9 12/6/6 17/11/11
f 17/11/11 12/6/6 18/12/12
f 18/12/12 12/6/6 19/13/13
f 19/13/13 12/6/6 2/14/14
f 2/14/14 12/6/6 3/15/15
f 3/15/15 12/6/6 21/16/16
s 1
f 4/4/4 3/3/3 21/17/17 22/18/18 20/19/19 9/20/20 5/21/21 6/22/22 23/23/23 24/24/24 25/25/25
f 26/26/26 19/27/27 2/2/2 1/1/1
f 27/28/28 18/29/29 19/27/27 26/26/26
f 29/30/30 17/31/31 18/29/29 27/28/28
f 30/32/32 15/33/33 17/31/31 29/30/30
f 31/34/34 13/35/35 15/33/33 30/32/32
f 32/36/36 14/37/37 11/38/38 33/39/39
f 33/39/39 11/38/38 13/35/35 31/34/34
s 4
f 25/40/40 35/41/41 4/42/42
f 4/42/42 35/41/41 1/43/43
f 1/43/43 35/41/41 26/44/44
f 26/44/44 35/41/41 27/45/45
f 27/45/45 35/41/41 29/46/46
f 29/46/46 35/41/41 30/47/47
f 32/48/48 35/41/41 37/49/49
f 30/47/47 35/41/41 31/50/50
f 33/51/51 35/41/41 32/48/48
f 31/50/50 35/41/41 33/51/51
s 1
f 37/52/52 38/53/53 36/54/54 34/55/55 28/56/56 7/57/57 8/58/58 10/59/59 16/60/60 14/37/37 32/36/36
